<?xml version="1.0" encoding="UTF-8" standalone="no"?>
<!-- Created with Inkscape (http://www.inkscape.org/) -->

<svg
   width="100mm"
   height="100mm"
   viewBox="0 0 100 100"
   version="1.1"
   id="svg5"
   inkscape:version="1.2.2 (732a01da63, 2022-12-09)"
   sodipodi:docname="led_icon.svg"
   xmlns:inkscape="http://www.inkscape.org/namespaces/inkscape"
   xmlns:sodipodi="http://sodipodi.sourceforge.net/DTD/sodipodi-0.dtd"
   xmlns="http://www.w3.org/2000/svg"
   xmlns:svg="http://www.w3.org/2000/svg">
  <sodipodi:namedview
     id="namedview7"
     pagecolor="#565656"
     bordercolor="#000000"
     borderopacity="1"
     inkscape:showpageshadow="0"
     inkscape:pageopacity="0"
     inkscape:pagecheckerboard="0"
     inkscape:deskcolor="#3c3c3c"
     inkscape:document-units="mm"
     showgrid="false"
     inkscape:zoom="1.7179979"
     inkscape:cx="96.624099"
     inkscape:cy="172.29357"
     inkscape:window-width="1920"
     inkscape:window-height="1009"
     inkscape:window-x="-8"
     inkscape:window-y="-8"
     inkscape:window-maximized="1"
     inkscape:current-layer="layer6" />
  <defs
     id="defs2">
    <inkscape:path-effect
       effect="fillet_chamfer"
       id="path-effect30128"
       is_visible="true"
       lpeversion="1"
       nodesatellites_param="F,0,0,1,0,5.2916667,0,1 @ F,0,0,1,0,5.2916667,0,1 @ F,0,0,1,0,5.2916667,0,1 @ F,0,0,1,0,5.2916667,0,1"
       unit="px"
       method="auto"
       mode="F"
       radius="20"
       chamfer_steps="1"
       flexible="false"
       use_knot_distance="true"
       apply_no_radius="true"
       apply_with_radius="true"
       only_selected="false"
       hide_knots="false" />
    <inkscape:path-effect
       effect="fillet_chamfer"
       id="path-effect25945"
       is_visible="true"
       lpeversion="1"
       nodesatellites_param="F,0,0,1,0,5.2916667,0,1 @ F,0,0,1,0,5.2916667,0,1 @ F,0,0,1,0,5.2916667,0,1 @ F,0,0,1,0,5.2916667,0,1"
       unit="px"
       method="auto"
       mode="F"
       radius="20"
       chamfer_steps="1"
       flexible="false"
       use_knot_distance="true"
       apply_no_radius="true"
       apply_with_radius="true"
       only_selected="false"
       hide_knots="false" />
    <inkscape:path-effect
       effect="fillet_chamfer"
       id="path-effect25937"
       is_visible="true"
       lpeversion="1"
       nodesatellites_param="F,0,0,1,0,5.2916667,0,1 @ F,0,0,1,0,5.2916667,0,1 @ F,0,0,1,0,5.2916667,0,1 @ F,0,0,1,0,5.2916667,0,1"
       unit="px"
       method="auto"
       mode="F"
       radius="20"
       chamfer_steps="1"
       flexible="false"
       use_knot_distance="true"
       apply_no_radius="true"
       apply_with_radius="true"
       only_selected="false"
       hide_knots="false" />
    <inkscape:path-effect
       effect="fillet_chamfer"
       id="path-effect25198"
       is_visible="true"
       lpeversion="1"
       nodesatellites_param="F,0,0,1,0,5.2916667,0,1 @ F,0,0,1,0,5.2916667,0,1 @ F,0,0,1,0,5.2916667,0,1 @ F,0,0,1,0,5.2916667,0,1"
       unit="px"
       method="auto"
       mode="F"
       radius="20"
       chamfer_steps="1"
       flexible="false"
       use_knot_distance="true"
       apply_no_radius="true"
       apply_with_radius="true"
       only_selected="false"
       hide_knots="false" />
    <inkscape:path-effect
       effect="fillet_chamfer"
       id="path-effect25194"
       is_visible="true"
       lpeversion="1"
       nodesatellites_param="F,0,0,1,0,5.2916667,0,1 @ F,0,0,1,0,5.2916667,0,1 @ F,0,0,1,0,5.2916667,0,1 @ F,0,0,1,0,5.2916667,0,1"
       unit="px"
       method="auto"
       mode="F"
       radius="20"
       chamfer_steps="1"
       flexible="false"
       use_knot_distance="true"
       apply_no_radius="true"
       apply_with_radius="true"
       only_selected="false"
       hide_knots="false" />
    <inkscape:path-effect
       effect="fillet_chamfer"
       id="path-effect25190"
       is_visible="true"
       lpeversion="1"
       nodesatellites_param="F,0,0,1,0,5.2916667,0,1 @ F,0,0,1,0,5.2916667,0,1 @ F,0,0,1,0,5.2916667,0,1 @ F,0,0,1,0,5.2916667,0,1"
       unit="px"
       method="auto"
       mode="F"
       radius="20"
       chamfer_steps="1"
       flexible="false"
       use_knot_distance="true"
       apply_no_radius="true"
       apply_with_radius="true"
       only_selected="false"
       hide_knots="false" />
    <inkscape:path-effect
       effect="fillet_chamfer"
       id="path-effect25090"
       is_visible="true"
       lpeversion="1"
       nodesatellites_param="F,0,0,1,0,5.2916667,0,1 @ F,0,0,1,0,5.2916667,0,1 @ F,0,0,1,0,5.2916667,0,1 @ F,0,0,1,0,5.2916667,0,1"
       unit="px"
       method="auto"
       mode="F"
       radius="20"
       chamfer_steps="1"
       flexible="false"
       use_knot_distance="true"
       apply_no_radius="true"
       apply_with_radius="true"
       only_selected="false"
       hide_knots="false" />
    <inkscape:path-effect
       effect="fillet_chamfer"
       id="path-effect25088"
       is_visible="true"
       lpeversion="1"
       nodesatellites_param="F,0,0,1,0,5.2916667,0,1 @ F,0,0,1,0,5.2916667,0,1 @ F,0,0,1,0,5.2916667,0,1 @ F,0,0,1,0,5.2916667,0,1"
       unit="px"
       method="auto"
       mode="F"
       radius="20"
       chamfer_steps="1"
       flexible="false"
       use_knot_distance="true"
       apply_no_radius="true"
       apply_with_radius="true"
       only_selected="false"
       hide_knots="false" />
    <inkscape:path-effect
       effect="fillet_chamfer"
       id="path-effect25015"
       is_visible="true"
       lpeversion="1"
       nodesatellites_param="F,0,0,1,0,5.2916667,0,1 @ F,0,0,1,0,5.2916667,0,1 @ F,0,0,1,0,5.2916667,0,1 @ F,0,0,1,0,5.2916667,0,1"
       unit="px"
       method="auto"
       mode="F"
       radius="20"
       chamfer_steps="1"
       flexible="false"
       use_knot_distance="true"
       apply_no_radius="true"
       apply_with_radius="true"
       only_selected="false"
       hide_knots="false" />
  </defs>
  <g
     inkscape:groupmode="layer"
     id="layer2"
     inkscape:label="ColorPicker"
     style="display:none">
    <circle
       style="fill:#294000;fill-opacity:1;fill-rule:evenodd;stroke:none;stroke-width:3.6;stroke-linecap:round;stroke-linejoin:round;stroke-miterlimit:3;stroke-dashoffset:65.3692;stroke-opacity:1;paint-order:normal"
       id="path5598"
       cx="81.118172"
       cy="3.1931453"
       r="1.1053195" />
    <circle
       style="fill:#507a00;fill-opacity:1;fill-rule:evenodd;stroke:none;stroke-width:3.6;stroke-linecap:round;stroke-linejoin:round;stroke-miterlimit:3;stroke-dashoffset:65.3692;stroke-opacity:1;paint-order:normal"
       id="path5598-8"
       cx="84.065697"
       cy="3.1931453"
       r="1.1053195" />
    <circle
       style="fill:#6eaa00;fill-opacity:1;fill-rule:evenodd;stroke:none;stroke-width:3.6;stroke-linecap:round;stroke-linejoin:round;stroke-miterlimit:3;stroke-dashoffset:65.3692;stroke-opacity:1;paint-order:normal"
       id="path5598-7"
       cx="87.013222"
       cy="3.1931453"
       r="1.1053195" />
    <circle
       style="fill:#9adb00;fill-opacity:1;fill-rule:evenodd;stroke:none;stroke-width:3.6;stroke-linecap:round;stroke-linejoin:round;stroke-miterlimit:3;stroke-dashoffset:65.3692;stroke-opacity:1;paint-order:normal"
       id="path5598-5"
       cx="89.960747"
       cy="3.1931453"
       r="1.1053195" />
  </g>
  <g
     inkscape:groupmode="layer"
     id="layer6"
     inkscape:label="layer1">
    <g
       id="g25949"
       transform="matrix(1.1745348,0,0,1.1745348,8.1116844,-10.465662)"
       style="fill:#ffffff;fill-opacity:1;stroke-width:0.8514">
      <path
         id="path25941"
         style="color:#000000;display:inline;fill:#ffffff;fill-opacity:1;fill-rule:evenodd;stroke:none;stroke-width:0.8514;stroke-linecap:round;stroke-linejoin:round;stroke-miterlimit:3;stroke-dashoffset:65.3692;stroke-opacity:1;-inkscape-stroke:none"
         d="M 14.219312,9.6963135 A 5.2916667,5.2916667 0 0 0 8.9276455,14.98798 v 39.945882 a 5.2916667,5.2916667 0 0 0 4.4328035,5.21932 V 24.555355 a 3.00031,3.00031 0 0 1 3.000334,-2.999817 H 59.539026 V 14.98798 A 5.2916667,5.2916667 0 0 0 54.247359,9.6963135 Z" />
    </g>
    <g
       id="g25957"
       transform="matrix(1.1745348,0,0,1.1745348,1.6445661,-10.465662)"
       style="fill:#bfbfbf;fill-opacity:1;stroke-width:0.8514">
      <path
         id="path25013"
         style="color:#000000;display:inline;fill:#bfbfbf;fill-opacity:1;fill-rule:evenodd;stroke:none;stroke-width:0.8514;stroke-linecap:round;stroke-linejoin:round;stroke-miterlimit:3;stroke-dashoffset:65.3692;stroke-opacity:1;-inkscape-stroke:none"
         d="m 29.078648,23.859526 a 5.2916667,5.2916667 0 0 0 -5.291667,5.291666 v 39.945882 a 5.2916667,5.2916667 0 0 0 5.189348,5.283399 V 40.470398 a 3.00031,3.00031 0 0 1 3.000333,-2.999817 h 42.4217 v -8.319389 a 5.2916667,5.2916667 0 0 0 -5.291666,-5.291666 z m 11.189498,19.611206 a 5.2916667,5.2916667 0 0 0 -5.291667,5.291666 v 25.626343 h 34.130217 a 5.2916667,5.2916667 0 0 0 3.349666,-1.196826 V 57.466777 H 42.235468 a 3.000005,3.000005 0 0 1 -2.999817,-2.999817 3.000005,3.000005 0 0 1 2.999817,-3.000334 h 32.162894 v -7.995894 z" />
    </g>
    <g
       id="g25953"
       style="fill:#ffffff;fill-opacity:1;stroke-width:0.8514"
       transform="matrix(1.1745348,0,0,1.1745348,-10.40681,-10.465662)">
      <path
         id="path25933"
         style="color:#000000;display:inline;fill:#ffffff;fill-opacity:1;fill-rule:evenodd;stroke:none;stroke-width:0.8514;stroke-linecap:round;stroke-linejoin:round;stroke-miterlimit:3;stroke-dashoffset:65.3692;stroke-opacity:1;-inkscape-stroke:none"
         d="m 48.68075,43.470732 a 5.2916667,5.2916667 0 0 0 -5.291667,5.291666 V 88.70828 a 5.2916667,5.2916667 0 0 0 5.291667,5.291667 H 88.708797 A 5.2916667,5.2916667 0 0 0 94.000464,88.70828 V 48.762398 a 5.2916667,5.2916667 0 0 0 -5.291667,-5.291666 z m 3.815271,7.995894 h 33.220711 a 3.000305,3.000305 0 0 1 2.999817,3.000334 v 29.261779 a 3.000305,3.000305 0 0 1 -2.999817,2.999817 H 52.650533 a 3.000005,3.000005 0 0 1 -3.000334,-2.999817 3.000005,3.000005 0 0 1 3.000334,-3.000333 H 82.716915 V 57.466777 H 52.496021 a 3.000005,3.000005 0 0 1 -2.999817,-2.999817 3.000005,3.000005 0 0 1 2.999817,-3.000334 z" />
    </g>
    <g
       id="g29691"
       style="fill:#808080;stroke:none;stroke-width:0.8514;fill-opacity:1"
       transform="matrix(1.1745348,0,0,1.1745348,-0.45624109,-6.1243908)">
      <path
         style="color:#000000;fill:#808080;fill-rule:evenodd;stroke:none;stroke-width:0.8514;stroke-linecap:round;stroke-linejoin:round;stroke-miterlimit:3;stroke-dashoffset:65.3692;stroke-opacity:1;-inkscape-stroke:none;fill-opacity:1"
         d="m 3.1582031,7.1738281 a 3.000005,3.000005 0 0 0 -2.046875,1.0390625 3.000005,3.000005 0 0 0 0.3242188,4.2285154 l 8.6250001,7.392578 a 3.000005,3.000005 0 0 0 4.230469,-0.324218 3.000005,3.000005 0 0 0 -0.326172,-4.230469 L 5.3398437,7.8867187 A 3.000005,3.000005 0 0 0 3.1582031,7.1738281 Z"
         id="path30283" />
      <path
         style="color:#000000;fill:#808080;fill-rule:evenodd;stroke:none;stroke-width:0.8514;stroke-linecap:round;stroke-linejoin:round;stroke-miterlimit:3;stroke-dashoffset:65.3692;stroke-opacity:1;-inkscape-stroke:none;fill-opacity:1"
         d="m 3.3886719,28.265625 a 3.000005,3.000005 0 0 0 -3.00000002,3 3.000005,3.000005 0 0 0 3.00000002,3 h 8.6230471 a 3.000005,3.000005 0 0 0 3,-3 3.000005,3.000005 0 0 0 -3,-3 z"
         id="path30286" />
      <path
         style="color:#000000;fill:#808080;fill-rule:evenodd;stroke:none;stroke-width:0.8514;stroke-linecap:round;stroke-linejoin:round;stroke-miterlimit:3;stroke-dashoffset:65.3692;stroke-opacity:1;-inkscape-stroke:none;fill-opacity:1"
         d="m 10.060547,42.695312 -8.6250001,7.392579 a 3.000005,3.000005 0 0 0 -0.3242188,4.230468 3.000005,3.000005 0 0 0 4.2285156,0.324219 L 13.964844,47.25 a 3.000005,3.000005 0 0 0 0.326172,-4.230469 3.000005,3.000005 0 0 0 -4.230469,-0.324219 z"
         id="path30289" />
    </g>
    <g
       id="g29707"
       transform="matrix(1.1745348,0,0,1.1745348,19.89311,33.54472)"
       style="fill:#808080;stroke:none;stroke-width:0.8514;fill-opacity:1">
      <path
         style="color:#000000;fill:#808080;fill-rule:evenodd;stroke:none;stroke-width:0.746232;stroke-linecap:round;stroke-linejoin:round;stroke-miterlimit:3;stroke-dashoffset:65.3692;stroke-opacity:1;-inkscape-stroke:none;fill-opacity:1"
         d="m 3.1582031,7.1738281 a 3.000005,3.000005 0 0 0 -2.046875,1.0390625 3.000005,3.000005 0 0 0 0.3242188,4.2285154 l 8.6250001,7.392578 a 3.000005,3.000005 0 0 0 4.230469,-0.324218 3.000005,3.000005 0 0 0 -0.326172,-4.230469 L 5.3398437,7.8867187 A 3.000005,3.000005 0 0 0 3.1582031,7.1738281 Z"
         id="path30181" />
      <path
         style="color:#000000;fill:#808080;fill-rule:evenodd;stroke:none;stroke-width:0.746232;stroke-linecap:round;stroke-linejoin:round;stroke-miterlimit:3;stroke-dashoffset:65.3692;stroke-opacity:1;-inkscape-stroke:none;fill-opacity:1"
         d="m 3.3886719,28.265625 a 3.000005,3.000005 0 0 0 -3.00000002,3 3.000005,3.000005 0 0 0 3.00000002,3 h 8.6230471 a 3.000005,3.000005 0 0 0 3,-3 3.000005,3.000005 0 0 0 -3,-3 z"
         id="path30178" />
      <path
         style="color:#000000;fill:#808080;fill-rule:evenodd;stroke:none;stroke-width:0.746232;stroke-linecap:round;stroke-linejoin:round;stroke-miterlimit:3;stroke-dashoffset:65.3692;stroke-opacity:1;-inkscape-stroke:none;fill-opacity:1"
         d="m 10.060547,42.695312 -8.6250001,7.392579 a 3.000005,3.000005 0 0 0 -0.3242188,4.230468 3.000005,3.000005 0 0 0 4.2285156,0.324219 L 13.964844,47.25 a 3.000005,3.000005 0 0 0 0.326172,-4.230469 3.000005,3.000005 0 0 0 -4.230469,-0.324219 z"
         id="path30175" />
    </g>
  </g>
</svg>
