<?xml version="1.0" encoding="UTF-8" standalone="no"?>
<!-- Created with Inkscape (http://www.inkscape.org/) -->

<svg
   width="128.99002mm"
   height="145.49512mm"
   viewBox="0 0 128.99002 145.49512"
   version="1.1"
   id="svg5"
   xmlns:inkscape="http://www.inkscape.org/namespaces/inkscape"
   xmlns:sodipodi="http://sodipodi.sourceforge.net/DTD/sodipodi-0.dtd"
   xmlns:xlink="http://www.w3.org/1999/xlink"
   xmlns="http://www.w3.org/2000/svg"
   xmlns:svg="http://www.w3.org/2000/svg">
  <sodipodi:namedview
     id="namedview7"
     pagecolor="#ffffff"
     bordercolor="#999999"
     borderopacity="1"
     inkscape:showpageshadow="0"
     inkscape:pageopacity="0"
     inkscape:pagecheckerboard="0"
     inkscape:deskcolor="#d1d1d1"
     inkscape:document-units="mm"
     showgrid="false"
     inkscape:zoom="0.73851712"
     inkscape:cx="241.02353"
     inkscape:cy="421.11414"
     inkscape:window-width="1920"
     inkscape:window-height="1009"
     inkscape:window-x="-8"
     inkscape:window-y="-8"
     inkscape:window-maximized="1"
     inkscape:current-layer="layer1" />
  <defs
     id="defs2">
    <rect
       x="219.26025"
       y="276.70837"
       width="52.660763"
       height="244.15443"
       id="rect13892" />
    <linearGradient
       inkscape:collect="always"
       id="linearGradient13043">
      <stop
         style="stop-color:#f7ff73;stop-opacity:0.9154228;"
         offset="0"
         id="stop13039" />
      <stop
         style="stop-color:#a9f8ff;stop-opacity:1;"
         offset="1"
         id="stop13041" />
    </linearGradient>
    <radialGradient
       inkscape:collect="always"
       xlink:href="#linearGradient13043"
       id="radialGradient13045"
       cx="105"
       cy="114.0558"
       fx="105"
       fy="114.0558"
       r="55.503731"
       gradientTransform="matrix(0.47772256,0,0,0.73780539,54.839131,23.777349)"
       gradientUnits="userSpaceOnUse" />
    <rect
       x="219.26025"
       y="276.70837"
       width="52.660763"
       height="244.15443"
       id="rect13892-3" />
  </defs>
  <g
     inkscape:label="Vrstva 1"
     inkscape:groupmode="layer"
     id="layer1"
     transform="translate(-40.504991,-32.252438)">
    <path
       sodipodi:type="star"
       style="fill:none;fill-opacity:1;fill-rule:evenodd;stroke:#000000;stroke-width:8.97544;stroke-linecap:round;stroke-linejoin:round;stroke-miterlimit:3;stroke-dasharray:none;stroke-dashoffset:65.3692;stroke-opacity:1;paint-order:stroke fill markers"
       id="path13829"
       inkscape:flatsided="true"
       sodipodi:sides="6"
       sodipodi:cx="156.55804"
       sodipodi:cy="105"
       sodipodi:r1="76.120781"
       sodipodi:r2="65.922531"
       sodipodi:arg1="-1.5707963"
       sodipodi:arg2="-1.0471976"
       inkscape:rounded="0.1"
       inkscape:randomized="0"
       d="m 156.55805,28.879219 c 7.61207,0 62.11649,31.468139 65.92253,38.060392 3.80603,6.592253 3.80603,69.528529 -1e-5,76.120779 -3.80604,6.59226 -58.31045,38.06039 -65.92253,38.06039 -7.61208,0 -62.116488,-31.46814 -65.922527,-38.06039 -3.806039,-6.59225 -3.806037,-69.528529 2e-6,-76.120782 3.80604,-6.592253 58.310455,-38.060389 65.922535,-38.060389 z"
       inkscape:transform-center-y="-1.2163981e-06"
       transform="matrix(0.88030033,0,0,0.90248002,-32.818098,10.239598)" />
    <path
       style="fill:url(#radialGradient13045);fill-opacity:1;fill-rule:evenodd;stroke:#000000;stroke-width:4.36562;stroke-linecap:round;stroke-linejoin:miter;stroke-miterlimit:3;stroke-dasharray:none;stroke-dashoffset:65.3692;stroke-opacity:1;paint-order:stroke fill markers"
       d="m 79.528034,147.82088 h 50.943936 l -0.035,-57.847453 -14.92344,-21.911954 -21.010116,-0.02503 -14.940479,21.93698 z"
       id="path6391"
       sodipodi:nodetypes="ccccccc" />
    <path
       style="fill:#91d22b;fill-opacity:1;fill-rule:evenodd;stroke:#000000;stroke-width:4.36562;stroke-linecap:round;stroke-linejoin:round;stroke-miterlimit:3;stroke-dasharray:none;stroke-dashoffset:65.3692;stroke-opacity:1;paint-order:stroke fill markers"
       d="m 85.941666,147.82088 c -2.904517,-8.72 0.242044,-12.77358 1.936345,-18.54686 1.694302,-5.77328 -2.420431,-12.28358 -3.14656,-18.05687 -0.726129,-5.77328 10e-7,-6.26462 2.420431,-11.423725 2.420431,-5.159104 0.242042,-12.529253 0.242042,-12.529253 0,0 5.44597,6.018953 6.414143,9.581192 0.968172,3.562236 -3.267583,5.527606 -2.541453,9.949696 0.726129,4.42209 3.025537,8.10717 3.509624,13.26627 0.484086,5.15911 -1.694301,8.84418 -1.815323,14.7403 -0.121021,5.89612 1.815323,13.01925 1.815323,13.01925"
       id="path10757"
       sodipodi:nodetypes="czzzczzzzc" />
    <path
       style="fill:#63a300;fill-opacity:1;fill-rule:evenodd;stroke:#000000;stroke-width:4.36562;stroke-linecap:round;stroke-linejoin:round;stroke-miterlimit:3;stroke-dasharray:none;stroke-dashoffset:65.3692;stroke-opacity:1;paint-order:stroke fill markers"
       d="m 100.46425,147.82088 c -3.025537,-9.33418 -1.210215,-14.12477 -0.24204,-16.33582 0.96817,-2.21104 5.56187,-11.30089 4.77779,-15.96865 -0.78408,-4.66776 -3.6886,-9.08985 -4.17269,-13.0206 -0.48408,-3.930745 -0.48408,-6.005217 1.33124,-12.522383 C 103.97388,83.456262 105,77.849244 105,77.849244 c 0,0 5.95228,12.404275 3.69372,18.143138 -2.25857,5.738868 5.9078,17.227438 4.47779,20.752388 -1.43001,3.52494 -3.02553,6.8788 -5.93005,13.51194 -2.90452,6.63313 1.08919,17.56417 1.08919,17.56417"
       id="path10759"
       sodipodi:nodetypes="czzzzczzzc" />
    <path
       style="fill:#a4d755;fill-opacity:1;fill-rule:evenodd;stroke:#000000;stroke-width:4.36562;stroke-linecap:round;stroke-linejoin:round;stroke-miterlimit:3;stroke-dasharray:none;stroke-dashoffset:65.3692;stroke-opacity:1;paint-order:stroke fill markers"
       d="m 117.28625,147.82088 c 3.63064,-10.31686 4.35677,-20.49855 1.57327,-25.30283 -2.78349,-4.80428 -2.78349,-9.45836 -0.84715,-16.70567 1.93635,-7.247311 2.90452,-10.672981 0.72613,-15.838953 -2.17838,-5.165971 -1.93634,-8.72821 -1.93634,-8.72821 0,0 9.31866,9.089849 9.68172,12.652088 0.36307,3.562239 -3.26758,11.792235 -3.50963,14.863135 -0.24204,3.0709 2.66248,9.70403 3.14657,16.21432 0.48408,6.5103 -0.48409,22.84612 -0.48409,22.84612"
       id="path10761"
       sodipodi:nodetypes="czzzczzzc" />
    <rect
       style="fill:#000000;fill-opacity:1;fill-rule:evenodd;stroke:#000000;stroke-width:1.323;stroke-linecap:round;stroke-linejoin:round;stroke-miterlimit:3;stroke-dasharray:none;stroke-dashoffset:65.3692;stroke-opacity:1;paint-order:stroke fill markers"
       id="rect13047"
       width="34.688389"
       height="11.856608"
       x="87.655807"
       y="55.762428"
       ry="6.7132497"
       rx="2.0192559" />
    <text
       xml:space="preserve"
       transform="matrix(0.63875169,0,0,0.85975228,-91.181567,-134.22229)"
       id="text13890"
       style="font-style:normal;font-variant:normal;font-weight:normal;font-stretch:normal;font-size:75.5906px;line-height:0;font-family:Arial;-inkscape-font-specification:Arial;white-space:pre;shape-inside:url(#rect13892);fill:#000000;fill-opacity:1;fill-rule:evenodd;stroke:none;stroke-width:6.61216;stroke-linecap:round;stroke-linejoin:round;stroke-miterlimit:3;stroke-dasharray:none;stroke-dashoffset:65.3692;stroke-opacity:1;paint-order:stroke fill markers"><tspan
         x="219.25977"
         y="297.55343"
         id="tspan14079">p</tspan></text>
    <text
       xml:space="preserve"
       transform="matrix(0.63875169,0,0,0.85975228,-7.0025183,-135.23561)"
       id="text13890-4"
       style="font-style:normal;font-variant:normal;font-weight:normal;font-stretch:normal;font-size:75.5906px;line-height:0;font-family:Arial;-inkscape-font-specification:Arial;white-space:pre;shape-inside:url(#rect13892-3);fill:#000000;fill-opacity:1;fill-rule:evenodd;stroke:none;stroke-width:6.61216;stroke-linecap:round;stroke-linejoin:round;stroke-miterlimit:3;stroke-dasharray:none;stroke-dashoffset:65.3692;stroke-opacity:1;paint-order:stroke fill markers"><tspan
         x="219.25977"
         y="297.55343"
         id="tspan14081">b
</tspan></text>
  </g>
</svg>
